<svg width="1138" height="517" viewBox="0 0 766 517" fill="none" xmlns="http://www.w3.org/2000/svg">
<path d="M0 0H766V517H0V0Z" fill="#353535"/>
<path d="M214.85 136.182V158H210.865L201.373 144.268H201.213V158H196.6V136.182H200.649L210.066 149.903H210.258V136.182H214.85ZM218.81 142.702V141.572C218.81 140.557 219.023 139.658 219.449 138.877C219.875 138.089 220.479 137.471 221.26 137.023C222.049 136.576 222.972 136.352 224.03 136.352C225.65 136.352 226.924 136.842 227.855 137.822C228.792 138.803 229.261 140.053 229.261 141.572V142.702C229.261 143.71 229.052 144.605 228.633 145.386C228.214 146.161 227.617 146.771 226.843 147.219C226.069 147.659 225.145 147.879 224.073 147.879C222.446 147.879 221.161 147.396 220.216 146.43C219.279 145.457 218.81 144.214 218.81 142.702ZM221.441 141.572V142.702C221.441 143.575 221.662 144.3 222.102 144.875C222.542 145.443 223.199 145.727 224.073 145.727C224.932 145.727 225.571 145.443 225.991 144.875C226.417 144.3 226.63 143.575 226.63 142.702V141.572C226.63 140.72 226.417 139.999 225.991 139.41C225.564 138.82 224.911 138.526 224.03 138.526C223.178 138.526 222.532 138.82 222.091 139.41C221.658 139.999 221.441 140.72 221.441 141.572Z" fill="#F6F6F6"/>
<path d="M65.559 158V136.182H72.9312C74.6428 136.182 76.042 136.491 77.1286 137.109C78.2224 137.719 79.032 138.547 79.5576 139.591C80.0832 140.635 80.346 141.8 80.346 143.085C80.346 144.371 80.0832 145.539 79.5576 146.59C79.0392 147.641 78.2366 148.479 77.1499 149.104C76.0633 149.722 74.6713 150.031 72.9738 150.031H67.6897V147.688H72.8886C74.0605 147.688 75.0015 147.485 75.7117 147.08C76.422 146.675 76.9369 146.129 77.2565 145.44C77.5832 144.744 77.7465 143.959 77.7465 143.085C77.7465 142.212 77.5832 141.43 77.2565 140.741C76.9369 140.053 76.4184 139.513 75.7011 139.122C74.9838 138.724 74.032 138.526 72.846 138.526H68.2011V158H65.559ZM90.9461 158.341C89.3694 158.341 88.0093 157.993 86.8659 157.297C85.7295 156.594 84.8524 155.614 84.2345 154.357C83.6237 153.092 83.3183 151.622 83.3183 149.946C83.3183 148.27 83.6237 146.793 84.2345 145.514C84.8524 144.229 85.7117 143.227 86.8126 142.51C87.9205 141.786 89.2132 141.423 90.6904 141.423C91.5427 141.423 92.3843 141.565 93.2153 141.849C94.0463 142.134 94.8026 142.595 95.4845 143.234C96.1663 143.866 96.7096 144.705 97.1144 145.749C97.5193 146.793 97.7217 148.078 97.7217 149.605V150.67H85.108V148.497H95.1649C95.1649 147.574 94.9802 146.75 94.6109 146.026C94.2487 145.301 93.7302 144.729 93.0555 144.31C92.3879 143.891 91.5995 143.682 90.6904 143.682C89.689 143.682 88.8225 143.93 88.091 144.428C87.3666 144.918 86.809 145.557 86.4184 146.345C86.0278 147.134 85.8325 147.979 85.8325 148.881V150.33C85.8325 151.565 86.0455 152.613 86.4717 153.472C86.9049 154.325 87.5051 154.974 88.2721 155.422C89.0392 155.862 89.9305 156.082 90.9461 156.082C91.6066 156.082 92.2032 155.99 92.7359 155.805C93.2757 155.614 93.7409 155.33 94.1315 154.953C94.5221 154.57 94.824 154.094 95.037 153.526L97.466 154.207C97.2103 155.031 96.7806 155.756 96.1769 156.381C95.5732 156.999 94.8275 157.482 93.9397 157.83C93.0519 158.17 92.0541 158.341 90.9461 158.341ZM107.725 158.341C106.362 158.341 105.158 157.996 104.114 157.308C103.07 156.612 102.253 155.631 101.663 154.367C101.074 153.096 100.779 151.594 100.779 149.861C100.779 148.142 101.074 146.651 101.663 145.386C102.253 144.122 103.073 143.146 104.124 142.457C105.176 141.768 106.39 141.423 107.768 141.423C108.833 141.423 109.675 141.601 110.293 141.956C110.918 142.304 111.394 142.702 111.72 143.149C112.054 143.589 112.313 143.952 112.498 144.236H112.711V136.182H115.225V158H112.796V155.486H112.498C112.313 155.784 112.051 156.161 111.71 156.615C111.369 157.062 110.882 157.464 110.25 157.819C109.618 158.167 108.776 158.341 107.725 158.341ZM108.066 156.082C109.075 156.082 109.927 155.82 110.623 155.294C111.319 154.761 111.848 154.026 112.21 153.089C112.573 152.144 112.754 151.054 112.754 149.818C112.754 148.597 112.576 147.528 112.221 146.612C111.866 145.688 111.34 144.971 110.644 144.46C109.948 143.941 109.089 143.682 108.066 143.682C107.001 143.682 106.113 143.955 105.403 144.502C104.7 145.042 104.171 145.777 103.815 146.707C103.467 147.631 103.293 148.668 103.293 149.818C103.293 150.983 103.471 152.041 103.826 152.993C104.188 153.937 104.721 154.69 105.424 155.251C106.134 155.805 107.015 156.082 108.066 156.082ZM124.994 158.384C123.957 158.384 123.016 158.188 122.171 157.798C121.326 157.4 120.655 156.828 120.158 156.082C119.661 155.33 119.412 154.42 119.412 153.355C119.412 152.418 119.597 151.658 119.966 151.075C120.335 150.486 120.829 150.024 121.447 149.69C122.065 149.357 122.747 149.108 123.492 148.945C124.245 148.774 125.002 148.639 125.761 148.54C126.756 148.412 127.562 148.316 128.18 148.252C128.805 148.181 129.259 148.064 129.543 147.901C129.835 147.737 129.98 147.453 129.98 147.048V146.963C129.98 145.912 129.693 145.095 129.117 144.513C128.549 143.93 127.686 143.639 126.528 143.639C125.328 143.639 124.387 143.902 123.705 144.428C123.024 144.953 122.544 145.514 122.267 146.111L119.881 145.259C120.307 144.264 120.875 143.49 121.585 142.936C122.303 142.375 123.084 141.984 123.929 141.764C124.781 141.537 125.619 141.423 126.443 141.423C126.969 141.423 127.573 141.487 128.254 141.615C128.943 141.736 129.607 141.988 130.247 142.371C130.893 142.755 131.429 143.334 131.855 144.108C132.281 144.882 132.494 145.919 132.494 147.219V158H129.98V155.784H129.852C129.682 156.139 129.398 156.519 129 156.924C128.602 157.329 128.073 157.673 127.413 157.957C126.752 158.241 125.946 158.384 124.994 158.384ZM125.378 156.125C126.372 156.125 127.21 155.93 127.892 155.539C128.581 155.148 129.1 154.644 129.448 154.026C129.803 153.408 129.98 152.759 129.98 152.077V149.776C129.874 149.903 129.639 150.021 129.277 150.127C128.922 150.227 128.51 150.315 128.041 150.393C127.58 150.464 127.129 150.528 126.688 150.585C126.255 150.635 125.903 150.678 125.634 150.713C124.98 150.798 124.369 150.937 123.801 151.129C123.24 151.313 122.786 151.594 122.438 151.97C122.097 152.339 121.926 152.844 121.926 153.483C121.926 154.357 122.249 155.017 122.896 155.464C123.549 155.905 124.377 156.125 125.378 156.125ZM125.463 139.42L128.063 134.477H131.003L127.679 139.42H125.463ZM143.688 164.477C142.474 164.477 141.43 164.321 140.556 164.009C139.683 163.703 138.955 163.298 138.372 162.794C137.797 162.297 137.339 161.764 136.998 161.196L139.001 159.79C139.228 160.088 139.516 160.429 139.864 160.812C140.212 161.203 140.688 161.54 141.291 161.825C141.902 162.116 142.701 162.261 143.688 162.261C145.009 162.261 146.1 161.942 146.959 161.303C147.818 160.663 148.248 159.662 148.248 158.298V154.974H148.035C147.85 155.273 147.588 155.642 147.247 156.082C146.913 156.516 146.43 156.903 145.798 157.244C145.173 157.577 144.328 157.744 143.262 157.744C141.941 157.744 140.755 157.432 139.704 156.807C138.66 156.182 137.833 155.273 137.222 154.08C136.618 152.886 136.316 151.437 136.316 149.733C136.316 148.057 136.611 146.597 137.201 145.354C137.79 144.104 138.61 143.138 139.661 142.457C140.713 141.768 141.927 141.423 143.305 141.423C144.37 141.423 145.215 141.601 145.84 141.956C146.473 142.304 146.956 142.702 147.289 143.149C147.63 143.589 147.893 143.952 148.078 144.236H148.333V141.636H150.762V158.469C150.762 159.875 150.443 161.018 149.804 161.899C149.171 162.787 148.319 163.437 147.247 163.849C146.181 164.268 144.995 164.477 143.688 164.477ZM143.603 155.486C144.612 155.486 145.464 155.255 146.16 154.793C146.856 154.332 147.385 153.668 147.747 152.801C148.11 151.935 148.291 150.898 148.291 149.69C148.291 148.511 148.113 147.471 147.758 146.569C147.403 145.667 146.877 144.96 146.181 144.449C145.485 143.937 144.626 143.682 143.603 143.682C142.538 143.682 141.65 143.952 140.94 144.491C140.237 145.031 139.708 145.756 139.353 146.665C139.005 147.574 138.831 148.582 138.831 149.69C138.831 150.827 139.008 151.832 139.363 152.705C139.725 153.572 140.258 154.254 140.961 154.751C141.671 155.241 142.552 155.486 143.603 155.486ZM155.365 158V141.636H157.879V158H155.365ZM156.643 138.909C156.153 138.909 155.73 138.742 155.375 138.408C155.027 138.075 154.853 137.673 154.853 137.205C154.853 136.736 155.027 136.335 155.375 136.001C155.73 135.667 156.153 135.5 156.643 135.5C157.133 135.5 157.552 135.667 157.9 136.001C158.255 136.335 158.433 136.736 158.433 137.205C158.433 137.673 158.255 138.075 157.9 138.408C157.552 138.742 157.133 138.909 156.643 138.909ZM169.131 158.341C167.654 158.341 166.358 157.989 165.243 157.286C164.135 156.583 163.269 155.599 162.644 154.335C162.026 153.071 161.717 151.594 161.717 149.903C161.717 148.199 162.026 146.711 162.644 145.44C163.269 144.168 164.135 143.181 165.243 142.478C166.358 141.775 167.654 141.423 169.131 141.423C170.609 141.423 171.901 141.775 173.009 142.478C174.124 143.181 174.991 144.168 175.609 145.44C176.234 146.711 176.546 148.199 176.546 149.903C176.546 151.594 176.234 153.071 175.609 154.335C174.991 155.599 174.124 156.583 173.009 157.286C171.901 157.989 170.609 158.341 169.131 158.341ZM169.131 156.082C170.254 156.082 171.177 155.795 171.901 155.219C172.626 154.644 173.162 153.888 173.51 152.95C173.858 152.013 174.032 150.997 174.032 149.903C174.032 148.81 173.858 147.79 173.51 146.846C173.162 145.901 172.626 145.138 171.901 144.555C171.177 143.973 170.254 143.682 169.131 143.682C168.009 143.682 167.086 143.973 166.362 144.555C165.637 145.138 165.101 145.901 164.753 146.846C164.405 147.79 164.231 148.81 164.231 149.903C164.231 150.997 164.405 152.013 164.753 152.95C165.101 153.888 165.637 154.644 166.362 155.219C167.086 155.795 168.009 156.082 169.131 156.082Z" fill="#F6F6F6"/>
<rect x="637" y="189" width="68" height="34" fill="#636363"/>
<rect x="493" y="301" width="58" height="34" fill="#636363"/>
<path d="M514.191 327.249C512.972 327.249 511.894 327.033 510.959 326.6C510.03 326.163 509.305 325.562 508.784 324.798C508.263 324.029 508.006 323.153 508.012 322.17C508.006 321.401 508.157 320.691 508.465 320.04C508.772 319.383 509.193 318.835 509.725 318.397C510.264 317.953 510.865 317.672 511.527 317.554V317.447C510.657 317.223 509.965 316.734 509.45 315.983C508.935 315.225 508.681 314.364 508.687 313.399C508.681 312.476 508.914 311.65 509.388 310.922C509.861 310.194 510.512 309.62 511.341 309.2C512.176 308.78 513.125 308.57 514.191 308.57C515.244 308.57 516.185 308.78 517.014 309.2C517.843 309.62 518.494 310.194 518.967 310.922C519.447 311.65 519.689 312.476 519.695 313.399C519.689 314.364 519.426 315.225 518.905 315.983C518.39 316.734 517.706 317.223 516.854 317.447V317.554C517.511 317.672 518.103 317.953 518.63 318.397C519.157 318.835 519.577 319.383 519.89 320.04C520.204 320.691 520.364 321.401 520.37 322.17C520.364 323.153 520.098 324.029 519.571 324.798C519.05 325.562 518.325 326.163 517.396 326.6C516.472 327.033 515.404 327.249 514.191 327.249ZM514.191 325.295C515.014 325.295 515.724 325.162 516.322 324.896C516.919 324.63 517.381 324.254 517.706 323.768C518.032 323.283 518.198 322.715 518.204 322.064C518.198 321.377 518.02 320.771 517.671 320.244C517.322 319.717 516.845 319.303 516.242 319.001C515.644 318.699 514.96 318.548 514.191 318.548C513.415 318.548 512.723 318.699 512.113 319.001C511.51 319.303 511.033 319.717 510.684 320.244C510.341 320.771 510.172 321.377 510.178 322.064C510.172 322.715 510.329 323.283 510.649 323.768C510.974 324.254 511.439 324.63 512.042 324.896C512.646 325.162 513.362 325.295 514.191 325.295ZM514.191 316.666C514.842 316.666 515.419 316.536 515.922 316.276C516.431 316.015 516.831 315.651 517.121 315.184C517.411 314.716 517.558 314.169 517.564 313.541C517.558 312.926 517.413 312.39 517.129 311.934C516.845 311.473 516.452 311.118 515.949 310.869C515.446 310.614 514.86 310.487 514.191 310.487C513.51 310.487 512.915 310.614 512.406 310.869C511.897 311.118 511.504 311.473 511.226 311.934C510.947 312.39 510.811 312.926 510.817 313.541C510.811 314.169 510.95 314.716 511.235 315.184C511.525 315.651 511.924 316.015 512.433 316.276C512.942 316.536 513.528 316.666 514.191 316.666ZM529.703 327.249C528.365 327.249 527.226 326.885 526.285 326.157C525.344 325.423 524.625 324.36 524.127 322.969C523.63 321.573 523.382 319.886 523.382 317.909C523.382 315.944 523.63 314.266 524.127 312.875C524.63 311.479 525.352 310.413 526.294 309.679C527.241 308.94 528.377 308.57 529.703 308.57C531.028 308.57 532.162 308.94 533.103 309.679C534.05 310.413 534.772 311.479 535.269 312.875C535.772 314.266 536.024 315.944 536.024 317.909C536.024 319.886 535.775 321.573 535.278 322.969C534.781 324.36 534.062 325.423 533.121 326.157C532.18 326.885 531.04 327.249 529.703 327.249ZM529.703 325.295C531.028 325.295 532.058 324.656 532.792 323.378C533.526 322.099 533.893 320.277 533.893 317.909C533.893 316.335 533.724 314.994 533.387 313.887C533.056 312.781 532.576 311.937 531.949 311.357C531.327 310.777 530.579 310.487 529.703 310.487C528.389 310.487 527.362 311.135 526.622 312.431C525.882 313.722 525.512 315.548 525.512 317.909C525.512 319.483 525.678 320.821 526.009 321.922C526.341 323.023 526.817 323.86 527.439 324.434C528.066 325.008 528.821 325.295 529.703 325.295Z" fill="#16F246"/>
<rect x="493" y="247" width="58" height="34" fill="#636363"/>
<path d="M612.973 162H606.24V140.182H613.271C615.387 140.182 617.199 140.619 618.704 141.492C620.21 142.359 621.364 143.605 622.167 145.232C622.969 146.851 623.37 148.79 623.37 151.048C623.37 153.321 622.966 155.278 622.156 156.918C621.346 158.552 620.167 159.809 618.619 160.69C617.071 161.563 615.189 162 612.973 162ZM608.882 159.656H612.802C614.606 159.656 616.101 159.308 617.287 158.612C618.473 157.916 619.358 156.925 619.94 155.64C620.522 154.354 620.814 152.824 620.814 151.048C620.814 149.287 620.526 147.771 619.951 146.499C619.375 145.221 618.516 144.241 617.373 143.559C616.229 142.87 614.805 142.526 613.1 142.526H608.882V159.656ZM634.322 162.341C632.745 162.341 631.385 161.993 630.242 161.297C629.105 160.594 628.228 159.614 627.61 158.357C627 157.092 626.694 155.622 626.694 153.946C626.694 152.27 627 150.793 627.61 149.514C628.228 148.229 629.088 147.227 630.189 146.51C631.297 145.786 632.589 145.423 634.066 145.423C634.919 145.423 635.76 145.565 636.591 145.849C637.422 146.134 638.179 146.595 638.86 147.234C639.542 147.866 640.086 148.705 640.49 149.749C640.895 150.793 641.098 152.078 641.098 153.605V154.67H628.484V152.497H638.541C638.541 151.574 638.356 150.75 637.987 150.026C637.625 149.301 637.106 148.729 636.431 148.31C635.764 147.891 634.975 147.682 634.066 147.682C633.065 147.682 632.199 147.93 631.467 148.428C630.743 148.918 630.185 149.557 629.794 150.345C629.404 151.134 629.208 151.979 629.208 152.881V154.33C629.208 155.565 629.422 156.613 629.848 157.472C630.281 158.325 630.881 158.974 631.648 159.422C632.415 159.862 633.306 160.082 634.322 160.082C634.983 160.082 635.579 159.99 636.112 159.805C636.652 159.614 637.117 159.33 637.507 158.953C637.898 158.57 638.2 158.094 638.413 157.526L640.842 158.207C640.586 159.031 640.157 159.756 639.553 160.381C638.949 160.999 638.203 161.482 637.316 161.83C636.428 162.17 635.43 162.341 634.322 162.341ZM652.039 145.636V147.767H643.559V145.636H652.039ZM646.03 141.716H648.544V157.312C648.544 158.023 648.647 158.555 648.853 158.911C649.066 159.259 649.336 159.493 649.663 159.614C649.997 159.727 650.348 159.784 650.718 159.784C650.995 159.784 651.222 159.77 651.4 159.741C651.577 159.706 651.719 159.678 651.826 159.656L652.337 161.915C652.167 161.979 651.929 162.043 651.623 162.107C651.318 162.178 650.931 162.213 650.462 162.213C649.752 162.213 649.056 162.06 648.374 161.755C647.699 161.45 647.138 160.984 646.691 160.359C646.25 159.734 646.03 158.946 646.03 157.994V141.716ZM660.636 162.384C659.599 162.384 658.658 162.188 657.813 161.798C656.968 161.4 656.297 160.828 655.799 160.082C655.302 159.33 655.054 158.42 655.054 157.355C655.054 156.418 655.238 155.658 655.608 155.075C655.977 154.486 656.471 154.024 657.088 153.69C657.706 153.357 658.388 153.108 659.134 152.945C659.887 152.774 660.643 152.639 661.403 152.54C662.397 152.412 663.203 152.316 663.821 152.252C664.446 152.181 664.901 152.064 665.185 151.901C665.476 151.737 665.622 151.453 665.622 151.048V150.963C665.622 149.912 665.334 149.095 664.759 148.513C664.191 147.93 663.328 147.639 662.17 147.639C660.97 147.639 660.029 147.902 659.347 148.428C658.665 148.953 658.186 149.514 657.909 150.111L655.522 149.259C655.949 148.264 656.517 147.49 657.227 146.936C657.944 146.375 658.725 145.984 659.571 145.764C660.423 145.537 661.261 145.423 662.085 145.423C662.61 145.423 663.214 145.487 663.896 145.615C664.585 145.736 665.249 145.988 665.888 146.371C666.534 146.755 667.071 147.334 667.497 148.108C667.923 148.882 668.136 149.919 668.136 151.219V162H665.622V159.784H665.494C665.324 160.139 665.039 160.519 664.642 160.924C664.244 161.329 663.715 161.673 663.054 161.957C662.394 162.241 661.588 162.384 660.636 162.384ZM661.02 160.125C662.014 160.125 662.852 159.93 663.534 159.539C664.223 159.148 664.741 158.644 665.089 158.026C665.444 157.408 665.622 156.759 665.622 156.077V153.776C665.515 153.903 665.281 154.021 664.919 154.127C664.564 154.227 664.152 154.315 663.683 154.393C663.221 154.464 662.77 154.528 662.33 154.585C661.897 154.635 661.545 154.678 661.275 154.713C660.622 154.798 660.011 154.937 659.443 155.129C658.882 155.313 658.427 155.594 658.079 155.97C657.738 156.339 657.568 156.844 657.568 157.483C657.568 158.357 657.891 159.017 658.537 159.464C659.191 159.905 660.018 160.125 661.02 160.125ZM675.239 140.182V162H672.725V140.182H675.239ZM682.358 152.156V162H679.844V140.182H682.358V148.193H682.571C682.955 147.348 683.53 146.677 684.297 146.18C685.071 145.675 686.101 145.423 687.387 145.423C688.502 145.423 689.478 145.647 690.316 146.094C691.154 146.535 691.804 147.213 692.266 148.129C692.735 149.038 692.969 150.196 692.969 151.602V162H690.455V151.773C690.455 150.473 690.118 149.468 689.443 148.758C688.775 148.04 687.848 147.682 686.662 147.682C685.838 147.682 685.1 147.856 684.446 148.204C683.8 148.552 683.289 149.06 682.912 149.727C682.543 150.395 682.358 151.205 682.358 152.156ZM704.43 162.341C702.853 162.341 701.493 161.993 700.349 161.297C699.213 160.594 698.336 159.614 697.718 158.357C697.107 157.092 696.802 155.622 696.802 153.946C696.802 152.27 697.107 150.793 697.718 149.514C698.336 148.229 699.195 147.227 700.296 146.51C701.404 145.786 702.697 145.423 704.174 145.423C705.026 145.423 705.868 145.565 706.699 145.849C707.53 146.134 708.286 146.595 708.968 147.234C709.65 147.866 710.193 148.705 710.598 149.749C711.003 150.793 711.205 152.078 711.205 153.605V154.67H698.591V152.497H708.648C708.648 151.574 708.464 150.75 708.094 150.026C707.732 149.301 707.214 148.729 706.539 148.31C705.871 147.891 705.083 147.682 704.174 147.682C703.172 147.682 702.306 147.93 701.574 148.428C700.85 148.918 700.292 149.557 699.902 150.345C699.511 151.134 699.316 151.979 699.316 152.881V154.33C699.316 155.565 699.529 156.613 699.955 157.472C700.388 158.325 700.988 158.974 701.756 159.422C702.523 159.862 703.414 160.082 704.43 160.082C705.09 160.082 705.687 159.99 706.219 159.805C706.759 159.614 707.224 159.33 707.615 158.953C708.006 158.57 708.307 158.094 708.52 157.526L710.949 158.207C710.694 159.031 710.264 159.756 709.66 160.381C709.057 160.999 708.311 161.482 707.423 161.83C706.535 162.17 705.537 162.341 704.43 162.341ZM726.621 149.301L724.362 149.94C724.22 149.564 724.01 149.198 723.733 148.843C723.464 148.481 723.094 148.183 722.626 147.948C722.157 147.714 721.557 147.597 720.825 147.597C719.824 147.597 718.989 147.827 718.322 148.289C717.661 148.744 717.331 149.322 717.331 150.026C717.331 150.651 717.558 151.144 718.013 151.506C718.467 151.869 719.177 152.17 720.143 152.412L722.572 153.009C724.035 153.364 725.126 153.907 725.843 154.638C726.56 155.363 726.919 156.297 726.919 157.44C726.919 158.378 726.649 159.216 726.109 159.955C725.577 160.693 724.831 161.276 723.872 161.702C722.913 162.128 721.798 162.341 720.527 162.341C718.858 162.341 717.476 161.979 716.383 161.254C715.289 160.53 714.596 159.472 714.305 158.08L716.692 157.483C716.919 158.364 717.349 159.024 717.981 159.464C718.62 159.905 719.454 160.125 720.484 160.125C721.656 160.125 722.586 159.876 723.275 159.379C723.971 158.875 724.319 158.271 724.319 157.568C724.319 157 724.121 156.524 723.723 156.141C723.325 155.75 722.714 155.459 721.89 155.267L719.163 154.628C717.665 154.273 716.564 153.722 715.861 152.977C715.165 152.224 714.817 151.283 714.817 150.153C714.817 149.23 715.076 148.413 715.594 147.703C716.12 146.993 716.834 146.435 717.736 146.031C718.645 145.626 719.675 145.423 720.825 145.423C722.444 145.423 723.716 145.778 724.639 146.489C725.569 147.199 726.23 148.136 726.621 149.301Z" fill="#F6F6F6"/>
<path d="M506.465 155.182H509.362L511.791 158.378L512.431 159.23L516.053 164.045H513.155L510.769 160.849L510.172 160.04L506.465 155.182ZM516.948 151.091C516.948 153.392 516.532 155.381 515.701 157.057C514.87 158.733 513.73 160.026 512.281 160.935C510.833 161.844 509.178 162.298 507.317 162.298C505.456 162.298 503.801 161.844 502.352 160.935C500.904 160.026 499.764 158.733 498.933 157.057C498.102 155.381 497.686 153.392 497.686 151.091C497.686 148.79 498.102 146.801 498.933 145.125C499.764 143.449 500.904 142.156 502.352 141.247C503.801 140.338 505.456 139.884 507.317 139.884C509.178 139.884 510.833 140.338 512.281 141.247C513.73 142.156 514.87 143.449 515.701 145.125C516.532 146.801 516.948 148.79 516.948 151.091ZM514.391 151.091C514.391 149.202 514.075 147.607 513.443 146.308C512.818 145.008 511.969 144.024 510.896 143.357C509.831 142.689 508.638 142.355 507.317 142.355C505.996 142.355 504.799 142.689 503.727 143.357C502.661 144.024 501.813 145.008 501.181 146.308C500.556 147.607 500.243 149.202 500.243 151.091C500.243 152.98 500.556 154.575 501.181 155.874C501.813 157.174 502.661 158.158 503.727 158.825C504.799 159.493 505.996 159.827 507.317 159.827C508.638 159.827 509.831 159.493 510.896 158.825C511.969 158.158 512.818 157.174 513.443 155.874C514.075 154.575 514.391 152.98 514.391 151.091ZM528.166 145.636V147.767H519.686V145.636H528.166ZM522.157 141.716H524.671V157.312C524.671 158.023 524.774 158.555 524.98 158.911C525.193 159.259 525.463 159.493 525.79 159.614C526.124 159.727 526.475 159.784 526.845 159.784C527.122 159.784 527.349 159.77 527.526 159.741C527.704 159.706 527.846 159.678 527.953 159.656L528.464 161.915C528.294 161.979 528.056 162.043 527.75 162.107C527.445 162.178 527.058 162.213 526.589 162.213C525.879 162.213 525.183 162.06 524.501 161.755C523.826 161.45 523.265 160.984 522.818 160.359C522.377 159.734 522.157 158.946 522.157 157.994V141.716ZM537.951 162.341C536.587 162.341 535.383 161.996 534.339 161.308C533.295 160.612 532.479 159.631 531.889 158.367C531.3 157.096 531.005 155.594 531.005 153.861C531.005 152.142 531.3 150.651 531.889 149.386C532.479 148.122 533.299 147.146 534.35 146.457C535.401 145.768 536.616 145.423 537.993 145.423C539.059 145.423 539.9 145.601 540.518 145.956C541.143 146.304 541.619 146.702 541.946 147.149C542.28 147.589 542.539 147.952 542.724 148.236H542.937V140.182H545.451V162H543.022V159.486H542.724C542.539 159.784 542.276 160.161 541.935 160.615C541.594 161.062 541.108 161.464 540.476 161.819C539.844 162.167 539.002 162.341 537.951 162.341ZM538.292 160.082C539.3 160.082 540.153 159.82 540.849 159.294C541.545 158.761 542.074 158.026 542.436 157.089C542.798 156.144 542.979 155.054 542.979 153.818C542.979 152.597 542.802 151.528 542.447 150.612C542.091 149.688 541.566 148.971 540.87 148.46C540.174 147.941 539.314 147.682 538.292 147.682C537.226 147.682 536.339 147.955 535.628 148.502C534.925 149.042 534.396 149.777 534.041 150.707C533.693 151.631 533.519 152.668 533.519 153.818C533.519 154.983 533.697 156.041 534.052 156.993C534.414 157.937 534.947 158.69 535.65 159.251C536.36 159.805 537.241 160.082 538.292 160.082Z" fill="#F6F6F6"/>
<path d="M68.6987 317.182H71.8521L79.2669 335.293H79.5226L86.9373 317.182H90.0907V339H87.6191V322.423H87.4061L80.5879 339H78.2015L71.3833 322.423H71.1703V339H68.6987V317.182ZM101.695 339.341C100.218 339.341 98.9215 338.989 97.8065 338.286C96.6985 337.583 95.832 336.599 95.207 335.335C94.5891 334.071 94.2802 332.594 94.2802 330.903C94.2802 329.199 94.5891 327.711 95.207 326.44C95.832 325.168 96.6985 324.181 97.8065 323.478C98.9215 322.775 100.218 322.423 101.695 322.423C103.172 322.423 104.465 322.775 105.573 323.478C106.688 324.181 107.554 325.168 108.172 326.44C108.797 327.711 109.11 329.199 109.11 330.903C109.11 332.594 108.797 334.071 108.172 335.335C107.554 336.599 106.688 337.583 105.573 338.286C104.465 338.989 103.172 339.341 101.695 339.341ZM101.695 337.082C102.817 337.082 103.74 336.795 104.465 336.219C105.189 335.644 105.725 334.888 106.074 333.95C106.422 333.013 106.596 331.997 106.596 330.903C106.596 329.81 106.422 328.79 106.074 327.846C105.725 326.901 105.189 326.138 104.465 325.555C103.74 324.973 102.817 324.682 101.695 324.682C100.573 324.682 99.6495 324.973 98.9251 325.555C98.2006 326.138 97.6644 326.901 97.3164 327.846C96.9684 328.79 96.7944 329.81 96.7944 330.903C96.7944 331.997 96.9684 333.013 97.3164 333.95C97.6644 334.888 98.2006 335.644 98.9251 336.219C99.6495 336.795 100.573 337.082 101.695 337.082ZM120.064 322.636V324.767H111.584V322.636H120.064ZM114.056 318.716H116.57V334.312C116.57 335.023 116.673 335.555 116.879 335.911C117.092 336.259 117.362 336.493 117.688 336.614C118.022 336.727 118.374 336.784 118.743 336.784C119.02 336.784 119.247 336.77 119.425 336.741C119.602 336.706 119.744 336.678 119.851 336.656L120.362 338.915C120.192 338.979 119.954 339.043 119.649 339.107C119.343 339.178 118.956 339.213 118.487 339.213C117.777 339.213 117.081 339.06 116.399 338.755C115.725 338.45 115.164 337.984 114.716 337.359C114.276 336.734 114.056 335.946 114.056 334.994V318.716ZM130.318 339.341C128.841 339.341 127.545 338.989 126.43 338.286C125.322 337.583 124.455 336.599 123.83 335.335C123.212 334.071 122.903 332.594 122.903 330.903C122.903 329.199 123.212 327.711 123.83 326.44C124.455 325.168 125.322 324.181 126.43 323.478C127.545 322.775 128.841 322.423 130.318 322.423C131.795 322.423 133.088 322.775 134.196 323.478C135.311 324.181 136.177 325.168 136.795 326.44C137.42 327.711 137.733 329.199 137.733 330.903C137.733 332.594 137.42 334.071 136.795 335.335C136.177 336.599 135.311 337.583 134.196 338.286C133.088 338.989 131.795 339.341 130.318 339.341ZM130.318 337.082C131.44 337.082 132.363 336.795 133.088 336.219C133.812 335.644 134.349 334.888 134.697 333.95C135.045 333.013 135.219 331.997 135.219 330.903C135.219 329.81 135.045 328.79 134.697 327.846C134.349 326.901 133.812 326.138 133.088 325.555C132.363 324.973 131.44 324.682 130.318 324.682C129.196 324.682 128.273 324.973 127.548 325.555C126.824 326.138 126.287 326.901 125.939 327.846C125.591 328.79 125.417 329.81 125.417 330.903C125.417 331.997 125.591 333.013 125.939 333.95C126.287 334.888 126.824 335.644 127.548 336.219C128.273 336.795 129.196 337.082 130.318 337.082ZM153.162 326.301L150.903 326.94C150.761 326.564 150.551 326.198 150.275 325.843C150.005 325.481 149.635 325.183 149.167 324.948C148.698 324.714 148.098 324.597 147.366 324.597C146.365 324.597 145.53 324.827 144.863 325.289C144.202 325.744 143.872 326.322 143.872 327.026C143.872 327.651 144.099 328.144 144.554 328.506C145.008 328.869 145.718 329.17 146.684 329.412L149.113 330.009C150.576 330.364 151.667 330.907 152.384 331.638C153.101 332.363 153.46 333.297 153.46 334.44C153.46 335.378 153.19 336.216 152.65 336.955C152.118 337.693 151.372 338.276 150.413 338.702C149.454 339.128 148.339 339.341 147.068 339.341C145.399 339.341 144.017 338.979 142.924 338.254C141.83 337.53 141.137 336.472 140.846 335.08L143.233 334.483C143.46 335.364 143.89 336.024 144.522 336.464C145.161 336.905 145.995 337.125 147.025 337.125C148.197 337.125 149.127 336.876 149.816 336.379C150.512 335.875 150.86 335.271 150.86 334.568C150.86 334 150.662 333.524 150.264 333.141C149.866 332.75 149.255 332.459 148.431 332.267L145.704 331.628C144.206 331.273 143.105 330.722 142.402 329.977C141.706 329.224 141.358 328.283 141.358 327.153C141.358 326.23 141.617 325.413 142.135 324.703C142.661 323.993 143.375 323.435 144.277 323.031C145.186 322.626 146.216 322.423 147.366 322.423C148.985 322.423 150.257 322.778 151.18 323.489C152.11 324.199 152.771 325.136 153.162 326.301Z" fill="#F6F6F6"/>
<path d="M83.6334 266H80.9914C80.8351 265.24 80.5617 264.572 80.1711 263.997C79.7876 263.422 79.3188 262.939 78.7648 262.548C78.218 262.151 77.6107 261.852 76.9431 261.653C76.2755 261.455 75.5795 261.355 74.855 261.355C73.534 261.355 72.3373 261.689 71.2648 262.357C70.1995 263.024 69.3508 264.008 68.7187 265.308C68.0937 266.607 67.7812 268.202 67.7812 270.091C67.7812 271.98 68.0937 273.575 68.7187 274.874C69.3508 276.174 70.1995 277.158 71.2648 277.825C72.3373 278.493 73.534 278.827 74.855 278.827C75.5795 278.827 76.2755 278.727 76.9431 278.528C77.6107 278.33 78.218 278.035 78.7648 277.644C79.3188 277.246 79.7876 276.76 80.1711 276.185C80.5617 275.602 80.8351 274.935 80.9914 274.182H83.6334C83.4346 275.297 83.0724 276.295 82.5468 277.175C82.0212 278.056 81.3678 278.805 80.5866 279.423C79.8053 280.034 78.9282 280.499 77.9552 280.819C76.9893 281.138 75.9559 281.298 74.855 281.298C72.9942 281.298 71.3394 280.844 69.8905 279.935C68.4417 279.026 67.3018 277.733 66.4708 276.057C65.6398 274.381 65.2243 272.392 65.2243 270.091C65.2243 267.79 65.6398 265.801 66.4708 264.125C67.3018 262.449 68.4417 261.156 69.8905 260.247C71.3394 259.338 72.9942 258.884 74.855 258.884C75.9559 258.884 76.9893 259.043 77.9552 259.363C78.9282 259.683 79.8053 260.151 80.5866 260.769C81.3678 261.38 82.0212 262.126 82.5468 263.006C83.0724 263.88 83.4346 264.878 83.6334 266ZM92.3772 281.384C91.3403 281.384 90.3992 281.188 89.5541 280.798C88.7089 280.4 88.0377 279.828 87.5406 279.082C87.0434 278.33 86.7948 277.42 86.7948 276.355C86.7948 275.418 86.9795 274.658 87.3488 274.075C87.7181 273.486 88.2117 273.024 88.8296 272.69C89.4475 272.357 90.1294 272.108 90.8751 271.945C91.6279 271.774 92.3843 271.639 93.1443 271.54C94.1386 271.412 94.9447 271.316 95.5626 271.252C96.1876 271.181 96.6421 271.064 96.9262 270.901C97.2174 270.737 97.363 270.453 97.363 270.048V269.963C97.363 268.912 97.0754 268.095 96.5001 267.513C95.9319 266.93 95.069 266.639 93.9113 266.639C92.711 266.639 91.77 266.902 91.0882 267.428C90.4063 267.953 89.9269 268.514 89.6499 269.111L87.2636 268.259C87.6897 267.264 88.2579 266.49 88.9681 265.936C89.6855 265.375 90.4667 264.984 91.3119 264.764C92.1642 264.537 93.0022 264.423 93.8261 264.423C94.3517 264.423 94.9553 264.487 95.6372 264.615C96.3261 264.736 96.9901 264.988 97.6294 265.371C98.2757 265.755 98.8119 266.334 99.238 267.108C99.6642 267.882 99.8772 268.919 99.8772 270.219V281H97.363V278.784H97.2352C97.0647 279.139 96.7806 279.519 96.3829 279.924C95.9852 280.329 95.4561 280.673 94.7955 280.957C94.135 281.241 93.3289 281.384 92.3772 281.384ZM92.7607 279.125C93.7551 279.125 94.5931 278.93 95.2749 278.539C95.9639 278.148 96.4823 277.644 96.8303 277.026C97.1855 276.408 97.363 275.759 97.363 275.077V272.776C97.2565 272.903 97.0221 273.021 96.6599 273.127C96.3048 273.227 95.8928 273.315 95.4241 273.393C94.9624 273.464 94.5115 273.528 94.0711 273.585C93.6379 273.635 93.2863 273.678 93.0164 273.713C92.363 273.798 91.7522 273.937 91.184 274.129C90.623 274.313 90.1684 274.594 89.8204 274.97C89.4795 275.339 89.309 275.844 89.309 276.483C89.309 277.357 89.6322 278.017 90.2785 278.464C90.9319 278.905 91.7593 279.125 92.7607 279.125ZM104.466 281V264.636H106.895V267.108H107.066C107.364 266.298 107.904 265.641 108.685 265.137C109.466 264.633 110.347 264.381 111.327 264.381C111.512 264.381 111.742 264.384 112.019 264.391C112.296 264.398 112.506 264.409 112.648 264.423V266.98C112.563 266.959 112.367 266.927 112.062 266.884C111.764 266.835 111.448 266.81 111.114 266.81C110.318 266.81 109.608 266.977 108.983 267.31C108.365 267.637 107.875 268.092 107.513 268.674C107.158 269.249 106.98 269.906 106.98 270.645V281H104.466ZM115.628 281V264.636H118.057V267.108H118.228C118.526 266.298 119.066 265.641 119.847 265.137C120.628 264.633 121.509 264.381 122.489 264.381C122.674 264.381 122.905 264.384 123.182 264.391C123.459 264.398 123.668 264.409 123.81 264.423V266.98C123.725 266.959 123.53 266.927 123.224 266.884C122.926 266.835 122.61 266.81 122.276 266.81C121.481 266.81 120.77 266.977 120.145 267.31C119.527 267.637 119.037 268.092 118.675 268.674C118.32 269.249 118.142 269.906 118.142 270.645V281H115.628ZM132.94 281.341C131.463 281.341 130.167 280.989 129.052 280.286C127.944 279.583 127.077 278.599 126.452 277.335C125.834 276.071 125.525 274.594 125.525 272.903C125.525 271.199 125.834 269.711 126.452 268.44C127.077 267.168 127.944 266.181 129.052 265.478C130.167 264.775 131.463 264.423 132.94 264.423C134.417 264.423 135.71 264.775 136.818 265.478C137.933 266.181 138.799 267.168 139.417 268.44C140.042 269.711 140.355 271.199 140.355 272.903C140.355 274.594 140.042 276.071 139.417 277.335C138.799 278.599 137.933 279.583 136.818 280.286C135.71 280.989 134.417 281.341 132.94 281.341ZM132.94 279.082C134.062 279.082 134.986 278.795 135.71 278.219C136.434 277.644 136.971 276.888 137.319 275.95C137.667 275.013 137.841 273.997 137.841 272.903C137.841 271.81 137.667 270.79 137.319 269.846C136.971 268.901 136.434 268.138 135.71 267.555C134.986 266.973 134.062 266.682 132.94 266.682C131.818 266.682 130.895 266.973 130.17 267.555C129.446 268.138 128.91 268.901 128.562 269.846C128.214 270.79 128.04 271.81 128.04 272.903C128.04 273.997 128.214 275.013 128.562 275.95C128.91 276.888 129.446 277.644 130.17 278.219C130.895 278.795 131.818 279.082 132.94 279.082ZM155.784 268.301L153.525 268.94C153.383 268.564 153.174 268.198 152.897 267.843C152.627 267.481 152.257 267.183 151.789 266.948C151.32 266.714 150.72 266.597 149.988 266.597C148.987 266.597 148.152 266.827 147.485 267.289C146.824 267.744 146.494 268.322 146.494 269.026C146.494 269.651 146.721 270.144 147.176 270.506C147.63 270.869 148.34 271.17 149.306 271.412L151.735 272.009C153.198 272.364 154.289 272.907 155.006 273.638C155.723 274.363 156.082 275.297 156.082 276.44C156.082 277.378 155.812 278.216 155.272 278.955C154.74 279.693 153.994 280.276 153.035 280.702C152.076 281.128 150.961 281.341 149.69 281.341C148.021 281.341 146.639 280.979 145.546 280.254C144.452 279.53 143.759 278.472 143.468 277.08L145.855 276.483C146.082 277.364 146.512 278.024 147.144 278.464C147.783 278.905 148.617 279.125 149.647 279.125C150.819 279.125 151.75 278.876 152.438 278.379C153.134 277.875 153.483 277.271 153.483 276.568C153.483 276 153.284 275.524 152.886 275.141C152.488 274.75 151.877 274.459 151.054 274.267L148.326 273.628C146.828 273.273 145.727 272.722 145.024 271.977C144.328 271.224 143.98 270.283 143.98 269.153C143.98 268.23 144.239 267.413 144.757 266.703C145.283 265.993 145.997 265.435 146.899 265.031C147.808 264.626 148.838 264.423 149.988 264.423C151.608 264.423 152.879 264.778 153.802 265.489C154.733 266.199 155.393 267.136 155.784 268.301Z" fill="#F6F6F6"/>
<path d="M85.0827 205H82.4406C82.2844 204.24 82.0109 203.572 81.6203 202.997C81.2368 202.422 80.768 201.939 80.214 201.548C79.6672 201.151 79.0599 200.852 78.3923 200.653C77.7247 200.455 77.0287 200.355 76.3042 200.355C74.9832 200.355 73.7865 200.689 72.714 201.357C71.6487 202.024 70.8 203.008 70.1679 204.308C69.5429 205.607 69.2304 207.202 69.2304 209.091C69.2304 210.98 69.5429 212.575 70.1679 213.874C70.8 215.174 71.6487 216.158 72.714 216.825C73.7865 217.493 74.9832 217.827 76.3042 217.827C77.0287 217.827 77.7247 217.727 78.3923 217.528C79.0599 217.33 79.6672 217.035 80.214 216.644C80.768 216.246 81.2368 215.76 81.6203 215.185C82.0109 214.602 82.2844 213.935 82.4406 213.182H85.0827C84.8838 214.297 84.5216 215.295 83.996 216.175C83.4704 217.056 82.817 217.805 82.0358 218.423C81.2545 219.034 80.3774 219.499 79.4044 219.819C78.4385 220.138 77.4051 220.298 76.3042 220.298C74.4434 220.298 72.7886 219.844 71.3398 218.935C69.8909 218.026 68.751 216.733 67.92 215.057C67.089 213.381 66.6736 211.392 66.6736 209.091C66.6736 206.79 67.089 204.801 67.92 203.125C68.751 201.449 69.8909 200.156 71.3398 199.247C72.7886 198.338 74.4434 197.884 76.3042 197.884C77.4051 197.884 78.4385 198.043 79.4044 198.363C80.3774 198.683 81.2545 199.151 82.0358 199.769C82.817 200.38 83.4704 201.126 83.996 202.006C84.5216 202.88 84.8838 203.878 85.0827 205ZM93.8264 220.384C92.7895 220.384 91.8485 220.188 91.0033 219.798C90.1581 219.4 89.4869 218.828 88.9898 218.082C88.4926 217.33 88.2441 216.42 88.2441 215.355C88.2441 214.418 88.4287 213.658 88.798 213.075C89.1673 212.486 89.661 212.024 90.2789 211.69C90.8968 211.357 91.5786 211.108 92.3243 210.945C93.0771 210.774 93.8335 210.639 94.5935 210.54C95.5878 210.412 96.3939 210.316 97.0118 210.252C97.6368 210.181 98.0914 210.064 98.3754 209.901C98.6666 209.737 98.8122 209.453 98.8122 209.048V208.963C98.8122 207.912 98.5246 207.095 97.9493 206.513C97.3811 205.93 96.5182 205.639 95.3605 205.639C94.1602 205.639 93.2192 205.902 92.5374 206.428C91.8556 206.953 91.3762 207.514 91.0992 208.111L88.7128 207.259C89.1389 206.264 89.7071 205.49 90.4173 204.936C91.1347 204.375 91.9159 203.984 92.7611 203.764C93.6134 203.537 94.4514 203.423 95.2753 203.423C95.8009 203.423 96.4046 203.487 97.0864 203.615C97.7753 203.736 98.4394 203.988 99.0786 204.371C99.7249 204.755 100.261 205.334 100.687 206.108C101.113 206.882 101.326 207.919 101.326 209.219V220H98.8122V217.784H98.6844C98.5139 218.139 98.2298 218.519 97.8321 218.924C97.4344 219.329 96.9053 219.673 96.2448 219.957C95.5843 220.241 94.7781 220.384 93.8264 220.384ZM94.21 218.125C95.2043 218.125 96.0423 217.93 96.7242 217.539C97.4131 217.148 97.9316 216.644 98.2796 216.026C98.6347 215.408 98.8122 214.759 98.8122 214.077V211.776C98.7057 211.903 98.4713 212.021 98.1091 212.127C97.754 212.227 97.3421 212.315 96.8733 212.393C96.4117 212.464 95.9607 212.528 95.5203 212.585C95.0871 212.635 94.7355 212.678 94.4656 212.713C93.8122 212.798 93.2014 212.937 92.6333 213.129C92.0722 213.313 91.6176 213.594 91.2696 213.97C90.9287 214.339 90.7583 214.844 90.7583 215.483C90.7583 216.357 91.0814 217.017 91.7277 217.464C92.3811 217.905 93.2085 218.125 94.21 218.125ZM105.915 220V203.636H108.344V206.193H108.557C108.898 205.32 109.449 204.641 110.209 204.158C110.969 203.668 111.881 203.423 112.947 203.423C114.026 203.423 114.925 203.668 115.642 204.158C116.366 204.641 116.931 205.32 117.336 206.193H117.506C117.925 205.348 118.554 204.677 119.392 204.18C120.23 203.675 121.235 203.423 122.407 203.423C123.87 203.423 125.067 203.881 125.997 204.798C126.927 205.707 127.393 207.124 127.393 209.048V220H124.878V209.048C124.878 207.841 124.548 206.978 123.888 206.46C123.227 205.941 122.449 205.682 121.555 205.682C120.404 205.682 119.513 206.03 118.881 206.726C118.248 207.415 117.932 208.288 117.932 209.347V220H115.376V208.793C115.376 207.862 115.074 207.113 114.47 206.545C113.866 205.969 113.089 205.682 112.137 205.682C111.484 205.682 110.873 205.856 110.305 206.204C109.744 206.552 109.289 207.035 108.941 207.653C108.6 208.263 108.43 208.97 108.43 209.773V220H105.915ZM131.99 220V203.636H134.504V220H131.99ZM133.268 200.909C132.778 200.909 132.355 200.742 132 200.408C131.652 200.075 131.478 199.673 131.478 199.205C131.478 198.736 131.652 198.335 132 198.001C132.355 197.667 132.778 197.5 133.268 197.5C133.758 197.5 134.177 197.667 134.525 198.001C134.88 198.335 135.058 198.736 135.058 199.205C135.058 199.673 134.88 200.075 134.525 200.408C134.177 200.742 133.758 200.909 133.268 200.909ZM141.623 210.156V220H139.109V203.636H141.538V206.193H141.751C142.134 205.362 142.717 204.695 143.498 204.19C144.279 203.679 145.288 203.423 146.524 203.423C147.631 203.423 148.601 203.651 149.432 204.105C150.263 204.553 150.909 205.234 151.371 206.151C151.832 207.06 152.063 208.21 152.063 209.602V220H149.549V209.773C149.549 208.487 149.215 207.486 148.548 206.768C147.88 206.044 146.964 205.682 145.799 205.682C144.997 205.682 144.279 205.856 143.647 206.204C143.022 206.552 142.528 207.06 142.166 207.727C141.804 208.395 141.623 209.205 141.623 210.156ZM159.172 210.156V220H156.658V198.182H159.172V206.193H159.385C159.768 205.348 160.344 204.677 161.111 204.18C161.885 203.675 162.915 203.423 164.2 203.423C165.315 203.423 166.292 203.647 167.13 204.094C167.968 204.535 168.618 205.213 169.079 206.129C169.548 207.038 169.783 208.196 169.783 209.602V220H167.268V209.773C167.268 208.473 166.931 207.468 166.256 206.758C165.589 206.04 164.662 205.682 163.476 205.682C162.652 205.682 161.913 205.856 161.26 206.204C160.614 206.552 160.102 207.06 159.726 207.727C159.356 208.395 159.172 209.205 159.172 210.156ZM181.03 220.341C179.553 220.341 178.256 219.989 177.141 219.286C176.033 218.583 175.167 217.599 174.542 216.335C173.924 215.071 173.615 213.594 173.615 211.903C173.615 210.199 173.924 208.711 174.542 207.44C175.167 206.168 176.033 205.181 177.141 204.478C178.256 203.775 179.553 203.423 181.03 203.423C182.507 203.423 183.8 203.775 184.908 204.478C186.023 205.181 186.889 206.168 187.507 207.44C188.132 208.711 188.445 210.199 188.445 211.903C188.445 213.594 188.132 215.071 187.507 216.335C186.889 217.599 186.023 218.583 184.908 219.286C183.8 219.989 182.507 220.341 181.03 220.341ZM181.03 218.082C182.152 218.082 183.075 217.795 183.8 217.219C184.524 216.644 185.06 215.888 185.408 214.95C185.756 214.013 185.93 212.997 185.93 211.903C185.93 210.81 185.756 209.79 185.408 208.846C185.06 207.901 184.524 207.138 183.8 206.555C183.075 205.973 182.152 205.682 181.03 205.682C179.908 205.682 178.984 205.973 178.26 206.555C177.536 207.138 176.999 207.901 176.651 208.846C176.303 209.79 176.129 210.81 176.129 211.903C176.129 212.997 176.303 214.013 176.651 214.95C176.999 215.888 177.536 216.644 178.26 217.219C178.984 217.795 179.908 218.082 181.03 218.082ZM177.749 201.676L175.788 201.591C175.788 200.504 176.097 199.616 176.715 198.928C177.34 198.232 178.111 197.884 179.027 197.884C179.432 197.884 179.791 197.955 180.103 198.097C180.416 198.232 180.714 198.388 180.998 198.565C181.282 198.743 181.573 198.903 181.872 199.045C182.177 199.18 182.521 199.247 182.905 199.247C183.31 199.247 183.651 199.091 183.928 198.778C184.212 198.459 184.354 198.075 184.354 197.628L186.271 197.798C186.271 198.906 185.959 199.787 185.334 200.44C184.716 201.094 183.949 201.42 183.033 201.42C182.543 201.42 182.138 201.353 181.818 201.218C181.499 201.076 181.215 200.916 180.966 200.739C180.717 200.561 180.455 200.405 180.178 200.27C179.901 200.128 179.56 200.057 179.155 200.057C178.75 200.057 178.413 200.217 178.143 200.536C177.88 200.849 177.749 201.229 177.749 201.676ZM199.143 220.341C197.567 220.341 196.207 219.993 195.063 219.297C193.927 218.594 193.05 217.614 192.432 216.357C191.821 215.092 191.516 213.622 191.516 211.946C191.516 210.27 191.821 208.793 192.432 207.514C193.05 206.229 193.909 205.227 195.01 204.51C196.118 203.786 197.41 203.423 198.888 203.423C199.74 203.423 200.582 203.565 201.413 203.849C202.244 204.134 203 204.595 203.682 205.234C204.364 205.866 204.907 206.705 205.312 207.749C205.717 208.793 205.919 210.078 205.919 211.605V212.67H193.305V210.497H203.362C203.362 209.574 203.177 208.75 202.808 208.026C202.446 207.301 201.927 206.729 201.253 206.31C200.585 205.891 199.797 205.682 198.888 205.682C197.886 205.682 197.02 205.93 196.288 206.428C195.564 206.918 195.006 207.557 194.616 208.345C194.225 209.134 194.03 209.979 194.03 210.881V212.33C194.03 213.565 194.243 214.613 194.669 215.472C195.102 216.325 195.702 216.974 196.469 217.422C197.236 217.862 198.128 218.082 199.143 218.082C199.804 218.082 200.4 217.99 200.933 217.805C201.473 217.614 201.938 217.33 202.329 216.953C202.719 216.57 203.021 216.094 203.234 215.526L205.663 216.207C205.408 217.031 204.978 217.756 204.374 218.381C203.771 218.999 203.025 219.482 202.137 219.83C201.249 220.17 200.251 220.341 199.143 220.341ZM221.334 207.301L219.076 207.94C218.934 207.564 218.724 207.198 218.447 206.843C218.177 206.481 217.808 206.183 217.339 205.948C216.871 205.714 216.271 205.597 215.539 205.597C214.538 205.597 213.703 205.827 213.035 206.289C212.375 206.744 212.045 207.322 212.045 208.026C212.045 208.651 212.272 209.144 212.726 209.506C213.181 209.869 213.891 210.17 214.857 210.412L217.286 211.009C218.749 211.364 219.839 211.907 220.557 212.638C221.274 213.363 221.633 214.297 221.633 215.44C221.633 216.378 221.363 217.216 220.823 217.955C220.29 218.693 219.545 219.276 218.586 219.702C217.627 220.128 216.512 220.341 215.241 220.341C213.572 220.341 212.19 219.979 211.097 219.254C210.003 218.53 209.31 217.472 209.019 216.08L211.405 215.483C211.633 216.364 212.062 217.024 212.695 217.464C213.334 217.905 214.168 218.125 215.198 218.125C216.37 218.125 217.3 217.876 217.989 217.379C218.685 216.875 219.033 216.271 219.033 215.568C219.033 215 218.834 214.524 218.437 214.141C218.039 213.75 217.428 213.459 216.604 213.267L213.877 212.628C212.378 212.273 211.278 211.722 210.574 210.977C209.878 210.224 209.53 209.283 209.53 208.153C209.53 207.23 209.79 206.413 210.308 205.703C210.834 204.993 211.547 204.435 212.449 204.031C213.359 203.626 214.388 203.423 215.539 203.423C217.158 203.423 218.43 203.778 219.353 204.489C220.283 205.199 220.944 206.136 221.334 207.301Z" fill="#F6F6F6"/>
<path d="M195.951 49.1818H201.64L207.648 63.8409H207.904L213.913 49.1818H219.602V71H215.127V56.799H214.946L209.3 70.8935H206.253L200.607 56.7457H200.425V71H195.951V49.1818ZM230.71 71.3196C229.056 71.3196 227.624 70.968 226.417 70.2649C225.217 69.5547 224.29 68.5675 223.637 67.3033C222.983 66.032 222.656 64.5582 222.656 62.8821C222.656 61.1918 222.983 59.7145 223.637 58.4503C224.29 57.179 225.217 56.1918 226.417 55.4886C227.624 54.7784 229.056 54.4233 230.71 54.4233C232.365 54.4233 233.793 54.7784 234.993 55.4886C236.2 56.1918 237.131 57.179 237.784 58.4503C238.438 59.7145 238.764 61.1918 238.764 62.8821C238.764 64.5582 238.438 66.032 237.784 67.3033C237.131 68.5675 236.2 69.5547 234.993 70.2649C233.793 70.968 232.365 71.3196 230.71 71.3196ZM230.732 67.804C231.485 67.804 232.113 67.5909 232.617 67.1648C233.122 66.7315 233.502 66.142 233.757 65.3963C234.02 64.6506 234.151 63.8018 234.151 62.8501C234.151 61.8984 234.02 61.0497 233.757 60.304C233.502 59.5582 233.122 58.9687 232.617 58.5355C232.113 58.1023 231.485 57.8857 230.732 57.8857C229.972 57.8857 229.333 58.1023 228.814 58.5355C228.303 58.9687 227.916 59.5582 227.653 60.304C227.397 61.0497 227.269 61.8984 227.269 62.8501C227.269 63.8018 227.397 64.6506 227.653 65.3963C227.916 66.142 228.303 66.7315 228.814 67.1648C229.333 67.5909 229.972 67.804 230.732 67.804ZM246.254 61.5398V71H241.715V54.6364H246.041V57.5234H246.232C246.595 56.5717 247.202 55.8189 248.054 55.2649C248.906 54.7038 249.94 54.4233 251.154 54.4233C252.291 54.4233 253.281 54.6719 254.127 55.169C254.972 55.6662 255.629 56.3764 256.097 57.2997C256.566 58.2159 256.801 59.3097 256.801 60.581V71H252.262V61.3906C252.269 60.3892 252.014 59.608 251.495 59.0469C250.977 58.4787 250.263 58.1946 249.354 58.1946C248.743 58.1946 248.203 58.326 247.735 58.5888C247.273 58.8516 246.911 59.2351 246.648 59.7393C246.392 60.2365 246.261 60.8366 246.254 61.5398ZM260.377 71V54.6364H264.916V71H260.377ZM262.657 52.527C261.983 52.527 261.404 52.3033 260.921 51.8558C260.445 51.4013 260.207 50.858 260.207 50.2259C260.207 49.6009 260.445 49.0646 260.921 48.6172C261.404 48.1626 261.983 47.9354 262.657 47.9354C263.332 47.9354 263.907 48.1626 264.383 48.6172C264.866 49.0646 265.108 49.6009 265.108 50.2259C265.108 50.858 264.866 51.4013 264.383 51.8558C263.907 52.3033 263.332 52.527 262.657 52.527ZM277.255 54.6364V58.0455H267.401V54.6364H277.255ZM269.638 50.7159H274.176V65.9716C274.176 66.3906 274.24 66.7173 274.368 66.9517C274.496 67.179 274.673 67.3388 274.901 67.4311C275.135 67.5234 275.405 67.5696 275.71 67.5696C275.923 67.5696 276.137 67.5518 276.35 67.5163C276.563 67.4737 276.726 67.4418 276.84 67.4205L277.553 70.7976C277.326 70.8686 277.007 70.9503 276.595 71.0426C276.183 71.142 275.682 71.2024 275.093 71.2237C273.999 71.2663 273.04 71.1207 272.216 70.7869C271.399 70.4531 270.764 69.9347 270.309 69.2315C269.855 68.5284 269.631 67.6406 269.638 66.5682V50.7159ZM287.429 71.3196C285.774 71.3196 284.343 70.968 283.136 70.2649C281.936 69.5547 281.009 68.5675 280.355 67.3033C279.702 66.032 279.375 64.5582 279.375 62.8821C279.375 61.1918 279.702 59.7145 280.355 58.4503C281.009 57.179 281.936 56.1918 283.136 55.4886C284.343 54.7784 285.774 54.4233 287.429 54.4233C289.084 54.4233 290.512 54.7784 291.712 55.4886C292.919 56.1918 293.85 57.179 294.503 58.4503C295.156 59.7145 295.483 61.1918 295.483 62.8821C295.483 64.5582 295.156 66.032 294.503 67.3033C293.85 68.5675 292.919 69.5547 291.712 70.2649C290.512 70.968 289.084 71.3196 287.429 71.3196ZM287.45 67.804C288.203 67.804 288.832 67.5909 289.336 67.1648C289.84 66.7315 290.22 66.142 290.476 65.3963C290.739 64.6506 290.87 63.8018 290.87 62.8501C290.87 61.8984 290.739 61.0497 290.476 60.304C290.22 59.5582 289.84 58.9687 289.336 58.5355C288.832 58.1023 288.203 57.8857 287.45 57.8857C286.691 57.8857 286.051 58.1023 285.533 58.5355C285.021 58.9687 284.634 59.5582 284.372 60.304C284.116 61.0497 283.988 61.8984 283.988 62.8501C283.988 63.8018 284.116 64.6506 284.372 65.3963C284.634 66.142 285.021 66.7315 285.533 67.1648C286.051 67.5909 286.691 67.804 287.45 67.804ZM298.434 71V54.6364H302.834V57.4915H303.004C303.303 56.4759 303.803 55.7088 304.507 55.1903C305.21 54.6648 306.019 54.402 306.936 54.402C307.163 54.402 307.408 54.4162 307.671 54.4446C307.933 54.473 308.164 54.5121 308.363 54.5618V58.5888C308.15 58.5249 307.855 58.468 307.479 58.4183C307.102 58.3686 306.758 58.3438 306.445 58.3438C305.778 58.3438 305.181 58.4893 304.656 58.7805C304.137 59.0646 303.725 59.4624 303.42 59.9737C303.122 60.4851 302.972 61.0746 302.972 61.7422V71H298.434ZM314.907 71.3089C313.863 71.3089 312.933 71.1278 312.116 70.7656C311.299 70.3963 310.653 69.853 310.177 69.1357C309.708 68.4112 309.474 67.5092 309.474 66.4297C309.474 65.5206 309.641 64.7571 309.974 64.1392C310.308 63.5213 310.763 63.0241 311.338 62.6477C311.913 62.2713 312.567 61.9872 313.298 61.7955C314.037 61.6037 314.811 61.4688 315.621 61.3906C316.572 61.2912 317.339 61.1989 317.922 61.1136C318.504 61.0213 318.927 60.8864 319.19 60.7088C319.452 60.5312 319.584 60.2685 319.584 59.9205V59.8565C319.584 59.1818 319.371 58.6598 318.945 58.2905C318.526 57.9212 317.929 57.7365 317.155 57.7365C316.338 57.7365 315.688 57.9176 315.205 58.2798C314.722 58.6349 314.403 59.0824 314.246 59.6222L310.049 59.2812C310.262 58.2869 310.681 57.4276 311.306 56.7031C311.931 55.9716 312.737 55.4105 313.724 55.0199C314.719 54.6222 315.869 54.4233 317.176 54.4233C318.085 54.4233 318.955 54.5298 319.786 54.7429C320.624 54.956 321.366 55.2862 322.013 55.7337C322.666 56.1811 323.181 56.7564 323.558 57.4595C323.934 58.1555 324.122 58.9901 324.122 59.9631V71H319.818V68.7308H319.69C319.428 69.2422 319.076 69.6932 318.636 70.0838C318.195 70.4673 317.666 70.7692 317.048 70.9893C316.43 71.2024 315.717 71.3089 314.907 71.3089ZM316.207 68.1768C316.874 68.1768 317.464 68.0455 317.975 67.7827C318.487 67.5128 318.888 67.1506 319.179 66.696C319.47 66.2415 319.616 65.7266 319.616 65.1513V63.4148C319.474 63.5071 319.278 63.5923 319.03 63.6705C318.788 63.7415 318.515 63.8089 318.21 63.8729C317.904 63.9297 317.599 63.983 317.293 64.0327C316.988 64.0753 316.711 64.1143 316.462 64.1499C315.93 64.228 315.464 64.3523 315.067 64.5227C314.669 64.6932 314.36 64.924 314.14 65.2152C313.92 65.4993 313.81 65.8544 313.81 66.2805C313.81 66.8984 314.033 67.3707 314.481 67.6974C314.935 68.017 315.511 68.1768 316.207 68.1768ZM327.643 71V54.6364H331.968V57.5234H332.16C332.501 56.5646 333.069 55.8082 333.865 55.2543C334.66 54.7003 335.612 54.4233 336.72 54.4233C337.842 54.4233 338.797 54.7038 339.586 55.2649C340.374 55.8189 340.9 56.5717 341.162 57.5234H341.333C341.667 56.5859 342.27 55.8366 343.144 55.2756C344.025 54.7074 345.065 54.4233 346.265 54.4233C347.792 54.4233 349.032 54.9098 349.983 55.8828C350.942 56.8487 351.422 58.2195 351.422 59.995V71H346.894V60.8899C346.894 59.9808 346.652 59.299 346.169 58.8445C345.686 58.3899 345.083 58.1626 344.358 58.1626C343.534 58.1626 342.892 58.4254 342.43 58.951C341.968 59.4695 341.738 60.1548 341.738 61.0071V71H337.338V60.794C337.338 59.9915 337.107 59.3523 336.645 58.8764C336.191 58.4006 335.591 58.1626 334.845 58.1626C334.341 58.1626 333.886 58.2905 333.481 58.5462C333.083 58.7947 332.767 59.1463 332.533 59.6009C332.299 60.0483 332.181 60.5739 332.181 61.1776V71H327.643ZM362.464 71.3196C360.781 71.3196 359.332 70.9787 358.117 70.2969C356.91 69.608 355.979 68.6349 355.326 67.3778C354.673 66.1136 354.346 64.6186 354.346 62.8928C354.346 61.2095 354.673 59.7322 355.326 58.4609C355.979 57.1896 356.899 56.1989 358.085 55.4886C359.278 54.7784 360.678 54.4233 362.283 54.4233C363.362 54.4233 364.367 54.5973 365.298 54.9453C366.235 55.2862 367.052 55.8011 367.748 56.4901C368.451 57.179 368.998 58.0455 369.388 59.0895C369.779 60.1264 369.974 61.3409 369.974 62.733V63.9794H356.157V61.1669H365.702C365.702 60.5135 365.56 59.9347 365.276 59.4304C364.992 58.9261 364.598 58.532 364.094 58.2479C363.597 57.9567 363.018 57.8111 362.357 57.8111C361.668 57.8111 361.058 57.9709 360.525 58.2905C359.999 58.603 359.587 59.0256 359.289 59.5582C358.991 60.0838 358.838 60.6697 358.831 61.3161V63.9901C358.831 64.7997 358.98 65.4993 359.278 66.0888C359.584 66.6783 360.013 67.1328 360.567 67.4524C361.121 67.772 361.778 67.9318 362.538 67.9318C363.043 67.9318 363.504 67.8608 363.923 67.7188C364.342 67.5767 364.701 67.3636 364.999 67.0795C365.298 66.7955 365.525 66.4474 365.681 66.0355L369.879 66.3125C369.665 67.321 369.229 68.2017 368.568 68.9545C367.915 69.7003 367.07 70.2827 366.033 70.7017C365.003 71.1136 363.813 71.3196 362.464 71.3196ZM377.474 61.5398V71H372.936V54.6364H377.261V57.5234H377.453C377.815 56.5717 378.423 55.8189 379.275 55.2649C380.127 54.7038 381.161 54.4233 382.375 54.4233C383.511 54.4233 384.502 54.6719 385.347 55.169C386.192 55.6662 386.849 56.3764 387.318 57.2997C387.787 58.2159 388.021 59.3097 388.021 60.581V71H383.483V61.3906C383.49 60.3892 383.234 59.608 382.716 59.0469C382.197 58.4787 381.484 58.1946 380.575 58.1946C379.964 58.1946 379.424 58.326 378.955 58.5888C378.494 58.8516 378.131 59.2351 377.869 59.7393C377.613 60.2365 377.482 60.8366 377.474 61.5398ZM400.302 54.6364V58.0455H390.448V54.6364H400.302ZM392.685 50.7159H397.223V65.9716C397.223 66.3906 397.287 66.7173 397.415 66.9517C397.543 67.179 397.72 67.3388 397.948 67.4311C398.182 67.5234 398.452 67.5696 398.757 67.5696C398.97 67.5696 399.183 67.5518 399.396 67.5163C399.61 67.4737 399.773 67.4418 399.887 67.4205L400.6 70.7976C400.373 70.8686 400.053 70.9503 399.642 71.0426C399.23 71.142 398.729 71.2024 398.139 71.2237C397.046 71.2663 396.087 71.1207 395.263 70.7869C394.446 70.4531 393.811 69.9347 393.356 69.2315C392.901 68.5284 392.678 67.6406 392.685 66.5682V50.7159ZM410.476 71.3196C408.821 71.3196 407.39 70.968 406.183 70.2649C404.982 69.5547 404.056 68.5675 403.402 67.3033C402.749 66.032 402.422 64.5582 402.422 62.8821C402.422 61.1918 402.749 59.7145 403.402 58.4503C404.056 57.179 404.982 56.1918 406.183 55.4886C407.39 54.7784 408.821 54.4233 410.476 54.4233C412.131 54.4233 413.558 54.7784 414.759 55.4886C415.966 56.1918 416.896 57.179 417.55 58.4503C418.203 59.7145 418.53 61.1918 418.53 62.8821C418.53 64.5582 418.203 66.032 417.55 67.3033C416.896 68.5675 415.966 69.5547 414.759 70.2649C413.558 70.968 412.131 71.3196 410.476 71.3196ZM410.497 67.804C411.25 67.804 411.879 67.5909 412.383 67.1648C412.887 66.7315 413.267 66.142 413.523 65.3963C413.786 64.6506 413.917 63.8018 413.917 62.8501C413.917 61.8984 413.786 61.0497 413.523 60.304C413.267 59.5582 412.887 58.9687 412.383 58.5355C411.879 58.1023 411.25 57.8857 410.497 57.8857C409.737 57.8857 409.098 58.1023 408.58 58.5355C408.068 58.9687 407.681 59.5582 407.419 60.304C407.163 61.0497 407.035 61.8984 407.035 62.8501C407.035 63.8018 407.163 64.6506 407.419 65.3963C407.681 66.142 408.068 66.7315 408.58 67.1648C409.098 67.5909 409.737 67.804 410.497 67.804ZM434.454 71.2663C433.211 71.2663 432.086 70.9467 431.077 70.3075C430.076 69.6612 429.28 68.7131 428.691 67.4631C428.108 66.206 427.817 64.6648 427.817 62.8395C427.817 60.9645 428.119 59.4055 428.723 58.1626C429.326 56.9126 430.129 55.9787 431.13 55.3608C432.139 54.7358 433.243 54.4233 434.444 54.4233C435.36 54.4233 436.123 54.5795 436.734 54.892C437.352 55.1974 437.849 55.581 438.225 56.0426C438.609 56.4972 438.9 56.9446 439.099 57.3849H439.238V49.1818H443.765V71H439.291V68.3793H439.099C438.886 68.8338 438.584 69.2848 438.194 69.7322C437.81 70.1726 437.309 70.5384 436.691 70.8295C436.081 71.1207 435.335 71.2663 434.454 71.2663ZM435.892 67.6548C436.624 67.6548 437.242 67.456 437.746 67.0582C438.257 66.6534 438.648 66.0888 438.918 65.3643C439.195 64.6399 439.333 63.7912 439.333 62.8182C439.333 61.8452 439.199 61 438.929 60.2827C438.659 59.5653 438.268 59.0114 437.757 58.6207C437.245 58.2301 436.624 58.0348 435.892 58.0348C435.147 58.0348 434.518 58.2372 434.007 58.642C433.495 59.0469 433.108 59.608 432.846 60.3253C432.583 61.0426 432.451 61.8736 432.451 62.8182C432.451 63.7699 432.583 64.6115 432.846 65.343C433.115 66.0675 433.502 66.6357 434.007 67.0476C434.518 67.4524 435.147 67.6548 435.892 67.6548ZM454.954 71.3196C453.271 71.3196 451.822 70.9787 450.607 70.2969C449.4 69.608 448.47 68.6349 447.816 67.3778C447.163 66.1136 446.836 64.6186 446.836 62.8928C446.836 61.2095 447.163 59.7322 447.816 58.4609C448.47 57.1896 449.389 56.1989 450.575 55.4886C451.769 54.7784 453.168 54.4233 454.773 54.4233C455.852 54.4233 456.857 54.5973 457.788 54.9453C458.725 55.2862 459.542 55.8011 460.238 56.4901C460.941 57.179 461.488 58.0455 461.879 59.0895C462.269 60.1264 462.465 61.3409 462.465 62.733V63.9794H448.647V61.1669H458.193C458.193 60.5135 458.051 59.9347 457.767 59.4304C457.482 58.9261 457.088 58.532 456.584 58.2479C456.087 57.9567 455.508 57.8111 454.847 57.8111C454.159 57.8111 453.548 57.9709 453.015 58.2905C452.49 58.603 452.078 59.0256 451.779 59.5582C451.481 60.0838 451.328 60.6697 451.321 61.3161V63.9901C451.321 64.7997 451.47 65.4993 451.769 66.0888C452.074 66.6783 452.504 67.1328 453.058 67.4524C453.612 67.772 454.269 67.9318 455.029 67.9318C455.533 67.9318 455.994 67.8608 456.414 67.7188C456.833 67.5767 457.191 67.3636 457.49 67.0795C457.788 66.7955 458.015 66.4474 458.171 66.0355L462.369 66.3125C462.156 67.321 461.719 68.2017 461.058 68.9545C460.405 69.7003 459.56 70.2827 458.523 70.7017C457.493 71.1136 456.303 71.3196 454.954 71.3196ZM476.397 49.1818L481.67 65.7585H481.873L487.157 49.1818H492.27L484.749 71H478.804L471.272 49.1818H476.397ZM500.423 71.3196C498.74 71.3196 497.291 70.9787 496.076 70.2969C494.869 69.608 493.938 68.6349 493.285 67.3778C492.632 66.1136 492.305 64.6186 492.305 62.8928C492.305 61.2095 492.632 59.7322 493.285 58.4609C493.938 57.1896 494.858 56.1989 496.044 55.4886C497.237 54.7784 498.637 54.4233 500.242 54.4233C501.321 54.4233 502.326 54.5973 503.257 54.9453C504.194 55.2862 505.011 55.8011 505.707 56.4901C506.41 57.179 506.957 58.0455 507.347 59.0895C507.738 60.1264 507.933 61.3409 507.933 62.733V63.9794H494.116V61.1669H503.661C503.661 60.5135 503.519 59.9347 503.235 59.4304C502.951 58.9261 502.557 58.532 502.053 58.2479C501.556 57.9567 500.977 57.8111 500.316 57.8111C499.627 57.8111 499.017 57.9709 498.484 58.2905C497.958 58.603 497.546 59.0256 497.248 59.5582C496.95 60.0838 496.797 60.6697 496.79 61.3161V63.9901C496.79 64.7997 496.939 65.4993 497.237 66.0888C497.543 66.6783 497.972 67.1328 498.526 67.4524C499.08 67.772 499.737 67.9318 500.497 67.9318C501.002 67.9318 501.463 67.8608 501.882 67.7188C502.301 67.5767 502.66 67.3636 502.958 67.0795C503.257 66.7955 503.484 66.4474 503.64 66.0355L507.838 66.3125C507.624 67.321 507.188 68.2017 506.527 68.9545C505.874 69.7003 505.029 70.2827 503.992 70.7017C502.962 71.1136 501.772 71.3196 500.423 71.3196ZM510.895 71V54.6364H515.433V71H510.895ZM511.545 52.527L513.803 47.6797H518.001L514.752 52.527H511.545ZM526.462 71.3196C524.786 71.3196 523.344 70.9645 522.137 70.2543C520.937 69.5369 520.013 68.5426 519.367 67.2713C518.728 66 518.408 64.5369 518.408 62.8821C518.408 61.206 518.732 59.7358 519.378 58.4716C520.031 57.2003 520.958 56.2095 522.158 55.4993C523.359 54.782 524.786 54.4233 526.441 54.4233C527.869 54.4233 529.119 54.6825 530.191 55.201C531.263 55.7195 532.112 56.4474 532.737 57.3849C533.362 58.3224 533.707 59.4233 533.771 60.6875H529.488C529.367 59.8707 529.048 59.2138 528.529 58.7166C528.018 58.2124 527.347 57.9602 526.516 57.9602C525.812 57.9602 525.198 58.152 524.673 58.5355C524.154 58.9119 523.749 59.4624 523.458 60.1868C523.167 60.9112 523.021 61.7884 523.021 62.8182C523.021 63.8622 523.163 64.75 523.447 65.4815C523.739 66.2131 524.147 66.7706 524.673 67.1541C525.198 67.5376 525.812 67.7294 526.516 67.7294C527.034 67.7294 527.499 67.6229 527.911 67.4098C528.33 67.1967 528.675 66.8878 528.945 66.483C529.222 66.071 529.403 65.5774 529.488 65.0021H533.771C533.7 66.2521 533.359 67.353 532.748 68.3047C532.144 69.2493 531.31 69.9879 530.244 70.5206C529.179 71.0533 527.918 71.3196 526.462 71.3196ZM547.17 64.0327V54.6364H551.708V71H547.351V68.0277H547.181C546.811 68.9865 546.197 69.7571 545.338 70.3395C544.485 70.9219 543.445 71.2131 542.216 71.2131C541.122 71.2131 540.16 70.9645 539.329 70.4673C538.498 69.9702 537.848 69.2635 537.379 68.3473C536.918 67.4311 536.683 66.3338 536.676 65.0554V54.6364H541.215V64.2457C541.222 65.2116 541.481 65.9751 541.992 66.5362C542.504 67.0973 543.189 67.3778 544.048 67.3778C544.595 67.3778 545.107 67.2536 545.583 67.005C546.058 66.7493 546.442 66.3729 546.733 65.8757C547.031 65.3786 547.177 64.7642 547.17 64.0327ZM559.877 49.1818V71H555.338V49.1818H559.877ZM570.906 71.3196C569.251 71.3196 567.82 70.968 566.612 70.2649C565.412 69.5547 564.485 68.5675 563.832 67.3033C563.178 66.032 562.852 64.5582 562.852 62.8821C562.852 61.1918 563.178 59.7145 563.832 58.4503C564.485 57.179 565.412 56.1918 566.612 55.4886C567.82 54.7784 569.251 54.4233 570.906 54.4233C572.561 54.4233 573.988 54.7784 575.188 55.4886C576.396 56.1918 577.326 57.179 577.98 58.4503C578.633 59.7145 578.96 61.1918 578.96 62.8821C578.96 64.5582 578.633 66.032 577.98 67.3033C577.326 68.5675 576.396 69.5547 575.188 70.2649C573.988 70.968 572.561 71.3196 570.906 71.3196ZM570.927 67.804C571.68 67.804 572.308 67.5909 572.813 67.1648C573.317 66.7315 573.697 66.142 573.953 65.3963C574.215 64.6506 574.347 63.8018 574.347 62.8501C574.347 61.8984 574.215 61.0497 573.953 60.304C573.697 59.5582 573.317 58.9687 572.813 58.5355C572.308 58.1023 571.68 57.8857 570.927 57.8857C570.167 57.8857 569.528 58.1023 569.009 58.5355C568.498 58.9687 568.111 59.5582 567.848 60.304C567.593 61.0497 567.465 61.8984 567.465 62.8501C567.465 63.8018 567.593 64.6506 567.848 65.3963C568.111 66.142 568.498 66.7315 569.009 67.1648C569.528 67.5909 570.167 67.804 570.927 67.804ZM595.526 59.3026L591.371 59.5582C591.3 59.2031 591.147 58.8835 590.913 58.5994C590.678 58.3082 590.369 58.0774 589.986 57.907C589.61 57.7294 589.159 57.6406 588.633 57.6406C587.93 57.6406 587.337 57.7898 586.854 58.0881C586.371 58.3793 586.129 58.7699 586.129 59.2599C586.129 59.6506 586.286 59.9808 586.598 60.2507C586.911 60.5206 587.447 60.7372 588.207 60.9006L591.169 61.4972C592.759 61.8239 593.945 62.3494 594.727 63.0739C595.508 63.7983 595.899 64.75 595.899 65.929C595.899 67.0014 595.583 67.9425 594.95 68.7521C594.325 69.5618 593.466 70.1939 592.372 70.6484C591.286 71.0959 590.032 71.3196 588.612 71.3196C586.445 71.3196 584.72 70.8686 583.434 69.9666C582.156 69.0575 581.406 67.8217 581.186 66.2592L585.65 66.0249C585.785 66.6854 586.112 67.1896 586.63 67.5376C587.149 67.8786 587.813 68.049 588.622 68.049C589.418 68.049 590.057 67.8963 590.54 67.5909C591.03 67.2784 591.279 66.8771 591.286 66.3871C591.279 65.9751 591.105 65.6378 590.764 65.375C590.423 65.1051 589.897 64.8991 589.187 64.7571L586.353 64.1925C584.755 63.8729 583.566 63.3189 582.784 62.5305C582.01 61.7422 581.623 60.7372 581.623 59.5156C581.623 58.4645 581.907 57.5589 582.475 56.799C583.051 56.0391 583.857 55.4531 584.894 55.0412C585.938 54.6293 587.159 54.4233 588.558 54.4233C590.625 54.4233 592.252 54.8601 593.438 55.7337C594.631 56.6072 595.327 57.7969 595.526 59.3026Z" fill="#F6F6F6"/>
<rect x="493" y="189" width="58" height="34" fill="#636363"/>
<path d="M514.047 215.249C512.875 215.249 511.83 215.047 510.913 214.645C510.001 214.242 509.276 213.683 508.738 212.967C508.205 212.245 507.915 211.407 507.868 210.455H510.105C510.152 211.04 510.353 211.547 510.708 211.973C511.064 212.393 511.528 212.718 512.102 212.949C512.676 213.18 513.313 213.295 514.011 213.295C514.792 213.295 515.485 213.159 516.088 212.887C516.692 212.615 517.166 212.236 517.509 211.751C517.852 211.265 518.024 210.703 518.024 210.064C518.024 209.395 517.858 208.806 517.527 208.297C517.195 207.782 516.71 207.38 516.071 207.09C515.432 206.8 514.65 206.655 513.727 206.655H512.271V204.702H513.727C514.449 204.702 515.082 204.571 515.627 204.311C516.177 204.051 516.606 203.684 516.914 203.21C517.228 202.737 517.385 202.18 517.385 201.541C517.385 200.926 517.249 200.39 516.976 199.934C516.704 199.479 516.319 199.123 515.822 198.869C515.331 198.614 514.751 198.487 514.082 198.487C513.455 198.487 512.863 198.603 512.307 198.833C511.756 199.058 511.306 199.387 510.957 199.819C510.608 200.245 510.418 200.76 510.389 201.364H508.258C508.294 200.411 508.581 199.576 509.119 198.86C509.658 198.138 510.362 197.576 511.232 197.173C512.108 196.771 513.07 196.57 514.118 196.57C515.242 196.57 516.207 196.797 517.012 197.253C517.817 197.703 518.435 198.298 518.867 199.038C519.299 199.777 519.515 200.576 519.515 201.435C519.515 202.459 519.246 203.332 518.707 204.054C518.175 204.776 517.45 205.276 516.532 205.554V205.696C517.681 205.885 518.577 206.374 519.222 207.161C519.867 207.942 520.19 208.91 520.19 210.064C520.19 211.052 519.921 211.94 519.382 212.727C518.849 213.509 518.121 214.124 517.198 214.574C516.275 215.024 515.224 215.249 514.047 215.249ZM523.395 211.271V209.46L531.385 196.818H532.699V199.624H531.811L525.774 209.176V209.318H536.534V211.271H523.395ZM531.953 215V210.721V209.877V196.818H534.048V215H531.953Z" fill="#16F246"/>
<path d="M500.908 273V271.402L506.91 264.832C507.614 264.063 508.194 263.394 508.65 262.826C509.106 262.252 509.443 261.713 509.662 261.21C509.887 260.701 509.999 260.169 509.999 259.612C509.999 258.973 509.845 258.42 509.538 257.952C509.236 257.484 508.822 257.123 508.295 256.869C507.768 256.614 507.176 256.487 506.519 256.487C505.821 256.487 505.211 256.632 504.69 256.922C504.176 257.206 503.776 257.606 503.492 258.121C503.214 258.636 503.075 259.239 503.075 259.932H500.979C500.979 258.866 501.225 257.931 501.716 257.126C502.208 256.321 502.876 255.694 503.723 255.244C504.575 254.795 505.531 254.57 506.59 254.57C507.656 254.57 508.6 254.795 509.422 255.244C510.245 255.694 510.89 256.301 511.358 257.064C511.825 257.828 512.059 258.677 512.059 259.612C512.059 260.281 511.938 260.935 511.695 261.574C511.458 262.208 511.044 262.915 510.452 263.696C509.866 264.471 509.052 265.418 508.011 266.537L503.927 270.905V271.047H512.379V273H500.908ZM521.727 273.249C520.685 273.249 519.747 273.041 518.913 272.627C518.078 272.213 517.409 271.645 516.906 270.923C516.403 270.201 516.128 269.378 516.081 268.455H518.211C518.294 269.277 518.667 269.958 519.33 270.496C519.999 271.029 520.798 271.295 521.727 271.295C522.473 271.295 523.136 271.121 523.716 270.772C524.302 270.422 524.76 269.943 525.092 269.333C525.429 268.718 525.598 268.022 525.598 267.247C525.598 266.454 525.423 265.747 525.074 265.125C524.731 264.498 524.257 264.004 523.653 263.643C523.05 263.282 522.36 263.098 521.585 263.092C521.029 263.086 520.457 263.172 519.872 263.35C519.286 263.521 518.803 263.743 518.424 264.016L516.365 263.767L517.466 254.818H526.912V256.771H519.312L518.673 262.134H518.78C519.152 261.838 519.62 261.592 520.182 261.397C520.745 261.201 521.33 261.104 521.94 261.104C523.053 261.104 524.044 261.37 524.914 261.903C525.79 262.429 526.477 263.152 526.974 264.069C527.477 264.986 527.728 266.034 527.728 267.212C527.728 268.372 527.468 269.407 526.947 270.319C526.432 271.224 525.722 271.941 524.816 272.467C523.911 272.988 522.881 273.249 521.727 273.249ZM537.292 273.249C536.546 273.237 535.801 273.095 535.055 272.822C534.309 272.55 533.628 272.092 533.013 271.446C532.397 270.795 531.903 269.916 531.53 268.81C531.157 267.697 530.971 266.3 530.971 264.619C530.971 263.009 531.122 261.583 531.424 260.34C531.726 259.091 532.164 258.041 532.738 257.189C533.312 256.33 534.004 255.679 534.815 255.235C535.632 254.792 536.552 254.57 537.576 254.57C538.594 254.57 539.5 254.774 540.293 255.182C541.092 255.585 541.743 256.147 542.246 256.869C542.749 257.591 543.075 258.423 543.222 259.364H541.056C540.855 258.547 540.464 257.869 539.884 257.331C539.304 256.792 538.535 256.523 537.576 256.523C536.168 256.523 535.058 257.135 534.247 258.36C533.442 259.586 533.037 261.305 533.031 263.518H533.173C533.504 263.015 533.898 262.586 534.354 262.231C534.815 261.87 535.324 261.592 535.881 261.397C536.437 261.201 537.026 261.104 537.647 261.104C538.689 261.104 539.642 261.364 540.506 261.885C541.37 262.4 542.062 263.113 542.583 264.025C543.104 264.93 543.365 265.969 543.365 267.141C543.365 268.265 543.113 269.295 542.61 270.23C542.107 271.159 541.4 271.899 540.488 272.45C539.583 272.994 538.517 273.26 537.292 273.249ZM537.292 271.295C538.038 271.295 538.707 271.109 539.298 270.736C539.896 270.363 540.367 269.863 540.71 269.236C541.059 268.608 541.234 267.91 541.234 267.141C541.234 266.389 541.065 265.705 540.728 265.09C540.396 264.468 539.938 263.974 539.352 263.607C538.772 263.24 538.109 263.057 537.363 263.057C536.801 263.057 536.277 263.169 535.792 263.394C535.306 263.613 534.88 263.915 534.513 264.3C534.152 264.684 533.868 265.125 533.661 265.623C533.454 266.114 533.35 266.632 533.35 267.176C533.35 267.898 533.519 268.573 533.856 269.2C534.2 269.828 534.667 270.334 535.259 270.718C535.857 271.103 536.535 271.295 537.292 271.295Z" fill="#16F246"/>
<path d="M650.632 215.249C649.46 215.249 648.416 215.047 647.498 214.645C646.587 214.242 645.862 213.683 645.323 212.967C644.79 212.245 644.5 211.407 644.453 210.455H646.69C646.738 211.04 646.939 211.547 647.294 211.973C647.649 212.393 648.114 212.718 648.688 212.949C649.262 213.18 649.898 213.295 650.597 213.295C651.378 213.295 652.07 213.159 652.674 212.887C653.278 212.615 653.751 212.236 654.094 211.751C654.438 211.265 654.609 210.703 654.609 210.064C654.609 209.395 654.444 208.806 654.112 208.297C653.781 207.782 653.295 207.38 652.656 207.09C652.017 206.8 651.236 206.655 650.312 206.655H648.856V204.702H650.312C651.034 204.702 651.668 204.571 652.212 204.311C652.763 204.051 653.192 203.684 653.5 203.21C653.813 202.737 653.97 202.18 653.97 201.541C653.97 200.926 653.834 200.39 653.562 199.934C653.289 199.479 652.905 199.123 652.408 198.869C651.916 198.614 651.336 198.487 650.668 198.487C650.04 198.487 649.448 198.603 648.892 198.833C648.342 199.058 647.892 199.387 647.543 199.819C647.193 200.245 647.004 200.76 646.974 201.364H644.844C644.879 200.411 645.166 199.576 645.705 198.86C646.243 198.138 646.948 197.576 647.818 197.173C648.694 196.771 649.655 196.57 650.703 196.57C651.828 196.57 652.792 196.797 653.597 197.253C654.402 197.703 655.021 198.298 655.453 199.038C655.885 199.777 656.101 200.576 656.101 201.435C656.101 202.459 655.831 203.332 655.293 204.054C654.76 204.776 654.035 205.276 653.118 205.554V205.696C654.266 205.885 655.163 206.374 655.808 207.161C656.453 207.942 656.775 208.91 656.775 210.064C656.775 211.052 656.506 211.94 655.968 212.727C655.435 213.509 654.707 214.124 653.784 214.574C652.86 215.024 651.81 215.249 650.632 215.249ZM659.98 211.271V209.46L667.97 196.818H669.284V199.624H668.397L662.36 209.176V209.318H673.12V211.271H659.98ZM668.539 215V210.721V209.877V196.818H670.634V215H668.539ZM682.91 195.966L677.05 217.734H675.133L680.992 195.966H682.91ZM691.501 215.249C690.329 215.249 689.285 215.047 688.367 214.645C687.456 214.242 686.731 213.683 686.192 212.967C685.66 212.245 685.37 211.407 685.322 210.455H687.559C687.607 211.04 687.808 211.547 688.163 211.973C688.518 212.393 688.983 212.718 689.557 212.949C690.131 213.18 690.767 213.295 691.466 213.295C692.247 213.295 692.939 213.159 693.543 212.887C694.147 212.615 694.62 212.236 694.964 211.751C695.307 211.265 695.478 210.703 695.478 210.064C695.478 209.395 695.313 208.806 694.981 208.297C694.65 207.782 694.165 207.38 693.525 207.09C692.886 206.8 692.105 206.655 691.182 206.655H689.726V204.702H691.182C691.904 204.702 692.537 204.571 693.081 204.311C693.632 204.051 694.061 203.684 694.369 203.21C694.682 202.737 694.839 202.18 694.839 201.541C694.839 200.926 694.703 200.39 694.431 199.934C694.159 199.479 693.774 199.123 693.277 198.869C692.785 198.614 692.205 198.487 691.537 198.487C690.909 198.487 690.317 198.603 689.761 198.833C689.211 199.058 688.761 199.387 688.412 199.819C688.062 200.245 687.873 200.76 687.843 201.364H685.713C685.748 200.411 686.035 199.576 686.574 198.86C687.113 198.138 687.817 197.576 688.687 197.173C689.563 196.771 690.525 196.57 691.572 196.57C692.697 196.57 693.661 196.797 694.466 197.253C695.271 197.703 695.89 198.298 696.322 199.038C696.754 199.777 696.97 200.576 696.97 201.435C696.97 202.459 696.701 203.332 696.162 204.054C695.629 204.776 694.904 205.276 693.987 205.554V205.696C695.135 205.885 696.032 206.374 696.677 207.161C697.322 207.942 697.645 208.91 697.645 210.064C697.645 211.052 697.375 211.94 696.837 212.727C696.304 213.509 695.576 214.124 694.653 214.574C693.729 215.024 692.679 215.249 691.501 215.249Z" fill="#FB2D00"/>
<rect x="637" y="303" width="68" height="34" fill="#636363"/>
<path d="M653.835 310.818V329H651.633V313.126H651.526L647.088 316.074V313.837L651.633 310.818H653.835ZM664.746 329.249C663.704 329.249 662.766 329.041 661.931 328.627C661.097 328.213 660.428 327.645 659.925 326.923C659.422 326.201 659.147 325.378 659.099 324.455H661.23C661.313 325.277 661.686 325.958 662.349 326.496C663.017 327.029 663.816 327.295 664.746 327.295C665.491 327.295 666.154 327.121 666.734 326.772C667.32 326.422 667.779 325.943 668.11 325.333C668.448 324.718 668.616 324.022 668.616 323.247C668.616 322.454 668.442 321.747 668.093 321.125C667.749 320.498 667.276 320.004 666.672 319.643C666.068 319.282 665.379 319.098 664.604 319.092C664.047 319.086 663.476 319.172 662.89 319.35C662.304 319.521 661.822 319.743 661.443 320.016L659.383 319.767L660.484 310.818H669.93V312.771H662.331L661.692 318.134H661.798C662.171 317.838 662.639 317.592 663.201 317.397C663.763 317.201 664.349 317.104 664.959 317.104C666.071 317.104 667.063 317.37 667.933 317.903C668.809 318.429 669.495 319.152 669.992 320.069C670.495 320.986 670.747 322.034 670.747 323.212C670.747 324.372 670.487 325.407 669.966 326.319C669.451 327.224 668.741 327.941 667.835 328.467C666.93 328.988 665.9 329.249 664.746 329.249ZM680.737 309.966L674.877 331.734H672.96L678.819 309.966H680.737ZM683.185 329V327.402L689.186 320.832C689.891 320.063 690.471 319.394 690.926 318.826C691.382 318.252 691.719 317.713 691.938 317.21C692.163 316.701 692.276 316.169 692.276 315.612C692.276 314.973 692.122 314.42 691.814 313.952C691.512 313.484 691.098 313.123 690.571 312.869C690.044 312.614 689.453 312.487 688.796 312.487C688.097 312.487 687.488 312.632 686.967 312.922C686.452 313.206 686.052 313.606 685.768 314.121C685.49 314.636 685.351 315.239 685.351 315.932H683.256C683.256 314.866 683.501 313.931 683.993 313.126C684.484 312.321 685.153 311.694 685.999 311.244C686.851 310.795 687.807 310.57 688.867 310.57C689.932 310.57 690.876 310.795 691.699 311.244C692.521 311.694 693.166 312.301 693.634 313.064C694.102 313.828 694.335 314.677 694.335 315.612C694.335 316.281 694.214 316.935 693.971 317.574C693.735 318.208 693.32 318.915 692.729 319.696C692.143 320.471 691.329 321.418 690.287 322.537L686.203 326.905V327.047H694.655V329H683.185Z" fill="#FB2D00"/>
<rect x="238" y="132" width="68" height="34" fill="#636363"/>
<path d="M264.191 158.249C262.972 158.249 261.894 158.033 260.959 157.6C260.03 157.163 259.305 156.562 258.784 155.798C258.263 155.029 258.006 154.153 258.012 153.17C258.006 152.401 258.157 151.691 258.465 151.04C258.772 150.383 259.193 149.835 259.725 149.397C260.264 148.953 260.865 148.672 261.527 148.554V148.447C260.657 148.223 259.965 147.734 259.45 146.983C258.935 146.225 258.681 145.364 258.687 144.399C258.681 143.476 258.914 142.65 259.388 141.922C259.861 141.194 260.512 140.62 261.341 140.2C262.176 139.78 263.125 139.57 264.191 139.57C265.244 139.57 266.185 139.78 267.014 140.2C267.843 140.62 268.494 141.194 268.967 141.922C269.447 142.65 269.689 143.476 269.695 144.399C269.689 145.364 269.426 146.225 268.905 146.983C268.39 147.734 267.706 148.223 266.854 148.447V148.554C267.511 148.672 268.103 148.953 268.63 149.397C269.157 149.835 269.577 150.383 269.89 151.04C270.204 151.691 270.364 152.401 270.37 153.17C270.364 154.153 270.098 155.029 269.571 155.798C269.05 156.562 268.325 157.163 267.396 157.6C266.472 158.033 265.404 158.249 264.191 158.249ZM264.191 156.295C265.014 156.295 265.724 156.162 266.322 155.896C266.919 155.63 267.381 155.254 267.706 154.768C268.032 154.283 268.198 153.715 268.204 153.064C268.198 152.377 268.02 151.771 267.671 151.244C267.322 150.717 266.845 150.303 266.242 150.001C265.644 149.699 264.96 149.548 264.191 149.548C263.415 149.548 262.723 149.699 262.113 150.001C261.51 150.303 261.033 150.717 260.684 151.244C260.341 151.771 260.172 152.377 260.178 153.064C260.172 153.715 260.329 154.283 260.649 154.768C260.974 155.254 261.439 155.63 262.042 155.896C262.646 156.162 263.362 156.295 264.191 156.295ZM264.191 147.666C264.842 147.666 265.419 147.536 265.922 147.276C266.431 147.015 266.831 146.651 267.121 146.184C267.411 145.716 267.558 145.169 267.564 144.541C267.558 143.926 267.413 143.39 267.129 142.934C266.845 142.473 266.452 142.118 265.949 141.869C265.446 141.614 264.86 141.487 264.191 141.487C263.51 141.487 262.915 141.614 262.406 141.869C261.897 142.118 261.504 142.473 261.226 142.934C260.947 143.39 260.811 143.926 260.817 144.541C260.811 145.169 260.95 145.716 261.235 146.184C261.525 146.651 261.924 147.015 262.433 147.276C262.942 147.536 263.528 147.666 264.191 147.666ZM279.703 158.249C278.365 158.249 277.226 157.885 276.285 157.157C275.344 156.423 274.625 155.36 274.127 153.969C273.63 152.573 273.382 150.886 273.382 148.909C273.382 146.944 273.63 145.266 274.127 143.875C274.63 142.479 275.352 141.413 276.294 140.679C277.241 139.94 278.377 139.57 279.703 139.57C281.028 139.57 282.162 139.94 283.103 140.679C284.05 141.413 284.772 142.479 285.269 143.875C285.772 145.266 286.024 146.944 286.024 148.909C286.024 150.886 285.775 152.573 285.278 153.969C284.781 155.36 284.062 156.423 283.121 157.157C282.18 157.885 281.04 158.249 279.703 158.249ZM279.703 156.295C281.028 156.295 282.058 155.656 282.792 154.378C283.526 153.099 283.893 151.277 283.893 148.909C283.893 147.335 283.724 145.994 283.387 144.887C283.056 143.781 282.576 142.937 281.949 142.357C281.327 141.777 280.579 141.487 279.703 141.487C278.389 141.487 277.362 142.135 276.622 143.431C275.882 144.722 275.512 146.548 275.512 148.909C275.512 150.483 275.678 151.821 276.009 152.922C276.341 154.023 276.817 154.86 277.439 155.434C278.066 156.008 278.821 156.295 279.703 156.295Z" fill="#F6F6F6"/>
<rect x="637" y="247" width="68" height="34" fill="#636363"/>
</svg>
